<svg xmlns="http://www.w3.org/2000/svg" viewBox="0 0 78 96">
  <title>bookmark_remove</title>
  <g id="Layer_2" data-name="Layer 2">
    <g id="Layer_1-2" data-name="Layer 1">
      <g>
        <g>
          <path d="M51.1,95,28,81.2,4.9,95H4.2A3.2,3.2,0,0,1,1,91.8V4.2A3.2,3.2,0,0,1,4.2,1H51.8A3.2,3.2,0,0,1,55,4.2V27.2l-.8.2a19,19,0,0,0,0,37.2l.8.2V91.8A3.2,3.2,0,0,1,51.8,95Z" fill="#ccc"/>
          <path d="M51.8,2A2.2,2.2,0,0,1,54,4.2V26.4a20,20,0,0,0,0,39.2V91.8A2.2,2.2,0,0,1,51.8,94h-.5L28,80,4.7,94H4.2A2.2,2.2,0,0,1,2,91.8V4.2A2.2,2.2,0,0,1,4.2,2H51.8m0-2H4.2A4.2,4.2,0,0,0,0,4.2V91.8A4.2,4.2,0,0,0,4.2,96H5.2l.5-.3L28,82.3,50.3,95.7l.5.3h1.1A4.2,4.2,0,0,0,56,91.8V64l-1.6-.3a18,18,0,0,1,0-35.3L56,28V4.2A4.2,4.2,0,0,0,51.8,0Z" fill="#666"/>
        </g>
        <path d="M58,28A18,18,0,1,1,40,46,18,18,0,0,1,58,28m0-2A20,20,0,1,0,78,46,20,20,0,0,0,58,26Z" fill="#666"/>
        <path d="M68,44H48a2,2,0,0,0,0,4H68a2,2,0,0,0,0-4Z" fill="#666"/>
      </g>
    </g>
  </g>
</svg>
