<svg id="Layer_1" data-name="Layer 1" xmlns="http://www.w3.org/2000/svg" viewBox="0 0 80 71.6">
  <title>final_fyp_logo2</title>
  <g>
    <path d="M198.6,375.1l.7.4.8.6.7.7a1.1,1.1,0,0,1,.3.7.6.6,0,0,1-.1.4,39.3,39.3,0,0,1-5.7,6.5,35.3,35.3,0,0,1-6.4,4.6,28.6,28.6,0,0,1-6.7,2.7,27.1,27.1,0,0,1-6.8.9,23.5,23.5,0,0,1-10.5-2.3,25.1,25.1,0,0,1-8.2-6.4,30,30,0,0,1-5.4-9.5,34.8,34.8,0,0,1-1.9-11.7,48.3,48.3,0,0,1,4.4-19.9,44.7,44.7,0,0,1,5.2-8.6,36.1,36.1,0,0,1,6.9-6.9,32,32,0,0,1,8.5-4.6,29.3,29.3,0,0,1,10-1.7,23.4,23.4,0,0,1,6.7,1,17.9,17.9,0,0,1,5.6,2.7,13.5,13.5,0,0,1,3.8,4.4,12.2,12.2,0,0,1,1.4,6,12.5,12.5,0,0,1-3.2,8.5,25.2,25.2,0,0,1-8.7,6.1,62.1,62.1,0,0,1-13.1,4.1,142.8,142.8,0,0,1-16.3,2.3v.8a37.9,37.9,0,0,0,1.5,11.1,27.6,27.6,0,0,0,4.3,8.6,19.9,19.9,0,0,0,6.4,5.6,16.2,16.2,0,0,0,7.9,2,20.5,20.5,0,0,0,8.8-2.1A32.1,32.1,0,0,0,198.6,375.1Zm-9-38.2a11.2,11.2,0,0,0-.7-4.1,10.2,10.2,0,0,0-2-3.3,9.6,9.6,0,0,0-3.1-2.2,9.5,9.5,0,0,0-3.9-.8,14,14,0,0,0-5.6,1.1,15.7,15.7,0,0,0-4.5,3,20.9,20.9,0,0,0-3.5,4.4,32.3,32.3,0,0,0-2.6,5.3,42.3,42.3,0,0,0-1.7,5.8,48.2,48.2,0,0,0-1,5.8A85.4,85.4,0,0,0,173,350a39.2,39.2,0,0,0,9-3,15.8,15.8,0,0,0,5.6-4.4A9.3,9.3,0,0,0,189.7,336.8Z" transform="translate(-149.4 -320.8)" fill="#c0424e"/>
    <path d="M221.3,391.8a6.6,6.6,0,0,1-3-.7,7,7,0,0,1-2.3-1.8,8.4,8.4,0,0,1-1.4-2.6,9.3,9.3,0,0,1-.5-3,9.4,9.4,0,0,1,.7-3.9,8.7,8.7,0,0,1,1.9-2.8,8,8,0,0,1,2.6-1.7,7.5,7.5,0,0,1,2.8-.6,7.1,7.1,0,0,1,3,.6,7,7,0,0,1,3.8,4.1,8.4,8.4,0,0,1,.5,3,10.4,10.4,0,0,1-.6,3.4,9.8,9.8,0,0,1-1.6,3,8.6,8.6,0,0,1-2.6,2.2A6.7,6.7,0,0,1,221.3,391.8Z" transform="translate(-149.4 -320.8)" fill="#6aa080"/>
  </g>
</svg>
