<?xml version="1.0" encoding="UTF-8"?>
<svg xmlns="http://www.w3.org/2000/svg" xmlns:xlink="http://www.w3.org/1999/xlink" width="160pt" height="160pt" viewBox="0 0 16 16" version="1.1">
<g id="surface1397038">
<path style=" stroke:none;fill-rule:nonzero;fill:rgb(67.058824%,67.058824%,67.058824%);fill-opacity:1;" d="M 0.601562 14.199219 L 0.601562 1.800781 L 4.71875 1.800781 L 5.917969 3 L 15.398438 3 L 15.398438 14.199219 Z M 0.601562 14.199219 "/>
<path style=" stroke:none;fill-rule:nonzero;fill:rgb(40%,40%,40%);fill-opacity:1;" d="M 4.632812 2 L 5.71875 3.082031 L 5.835938 3.199219 L 15.199219 3.199219 L 15.199219 14 L 0.800781 14 L 0.800781 2 L 4.632812 2 M 4.800781 1.601562 L 0.398438 1.601562 L 0.398438 14.398438 L 15.601562 14.398438 L 15.601562 2.800781 L 6 2.800781 Z M 4.800781 1.601562 "/>
<path style=" stroke:none;fill-rule:nonzero;fill:rgb(80%,80%,80%);fill-opacity:1;" d="M 0.601562 14.199219 L 0.601562 3.800781 L 4.859375 3.800781 L 6.058594 3 L 15.398438 3 L 15.398438 14.199219 Z M 0.601562 14.199219 "/>
<path style=" stroke:none;fill-rule:nonzero;fill:rgb(40%,40%,40%);fill-opacity:1;" d="M 15.199219 3.199219 L 15.199219 14 L 0.800781 14 L 0.800781 4 L 4.921875 4 L 5.023438 3.933594 L 6.121094 3.199219 L 15.199219 3.199219 M 15.601562 2.800781 L 6 2.800781 L 4.800781 3.601562 L 0.398438 3.601562 L 0.398438 14.398438 L 15.601562 14.398438 Z M 15.601562 2.800781 "/>
</g>
</svg>
