<svg xmlns="http://www.w3.org/2000/svg" x="0px" y="0px"
width="96" height="96"
viewBox="0 0 172 172"
style=" fill:#000000;"><g fill="none" fill-rule="nonzero" stroke="none" stroke-width="1" stroke-linecap="butt" stroke-linejoin="miter" stroke-miterlimit="10" stroke-dasharray="" stroke-dashoffset="0" font-family="none" font-weight="none" font-size="none" text-anchor="none" style="mix-blend-mode: normal"><path d="M0,172v-172h172v172z" fill="none"></path><g fill="#666666"><path d="M57.33333,35.83333c-7.91917,0 -14.33333,6.41417 -14.33333,14.33333v71.66667c0,7.91917 6.41417,14.33333 14.33333,14.33333c7.91917,0 14.33333,-6.41417 14.33333,-14.33333v-71.66667c0,-7.91917 -6.41417,-14.33333 -14.33333,-14.33333zM114.66667,35.83333c-7.91917,0 -14.33333,6.41417 -14.33333,14.33333v71.66667c0,7.91917 6.41417,14.33333 14.33333,14.33333c7.91917,0 14.33333,-6.41417 14.33333,-14.33333v-71.66667c0,-7.91917 -6.41417,-14.33333 -14.33333,-14.33333z"></path></g></g></svg>