<svg xmlns="http://www.w3.org/2000/svg" x="0px" y="0px"
width="96" height="96"
viewBox="0 0 226 226"
style=" fill:#000000;"><g transform="translate(13.334,13.334) scale(0.882,0.882)"><g fill="none" fill-rule="nonzero" stroke="none" stroke-width="none" stroke-linecap="butt" stroke-linejoin="none" stroke-miterlimit="10" stroke-dasharray="" stroke-dashoffset="0" font-family="none" font-weight="none" font-size="none" text-anchor="none" style="mix-blend-mode: normal"><g fill="#cccccc" stroke="#666666" stroke-width="30" stroke-linejoin="round"><path d="M89.80675,56.29283l76.62342,48.77833c5.8195,3.70075 5.8195,12.18517 0,15.88592l-76.62342,48.7595c-6.2715,3.98325 -14.47342,-0.51792 -14.47342,-7.94767v-97.52842c0,-7.42975 8.20192,-11.94033 14.47342,-7.94767z"></path></g><path d="M0,226v-226h226v226z" fill="none" stroke="none" stroke-width="1" stroke-linejoin="miter"></path><g fill="#cccccc" stroke="none" stroke-width="1" stroke-linejoin="miter"><path d="M75.33333,64.2405v97.52842c0,7.42975 8.20192,11.93092 14.47342,7.94767l76.62342,-48.7595c5.8195,-3.70075 5.8195,-12.18517 0,-15.88592l-76.62342,-48.77833c-6.2715,-3.99267 -14.47342,0.51792 -14.47342,7.94767z"></path></g><path d="" fill="none" stroke="none" stroke-width="1" stroke-linejoin="miter"></path><path d="" fill="none" stroke="none" stroke-width="1" stroke-linejoin="miter"></path></g></g></svg>